<svg version="1.1" viewBox="0.0 0.0 200.0 42.0" fill="none" stroke="none" stroke-linecap="square" stroke-miterlimit="10" xmlns:xlink="http://www.w3.org/1999/xlink" xmlns="http://www.w3.org/2000/svg"><clipPath id="p.0"><path d="m0 0l200.0 0l0 42.0l-200.0 0l0 -42.0z" clip-rule="nonzero"/></clipPath><g clip-path="url(#p.0)"><path fill="#000000" fill-opacity="0.0" d="m0 0l200.0 0l0 42.0l-200.0 0z" fill-rule="evenodd"/><g mask="url(#mask-p.1)"><use xlink:href="#p.1" transform="matrix(1.0 0.0 0.0 -1.0 0.0 59.76427086614173)"/></g><defs><mask id="mask-p.1" maskUnits="userSpaceOnUse" x="4.711098687664043" y="24.826671716226507" width="196.88188976377953" height="32.799999237060526"><linearGradient gradientUnits="userSpaceOnUse" id="gradient-p.1" x1="7.559055120532989" y1="29.881466162464598" x2="7.559015893183767" y2="40.71778018332593"><stop offset="0%" stop-color="#ffffff" stop-opacity="0.20000000298023224"/><stop offset="100%" stop-color="#ffffff" stop-opacity="0.0"/></linearGradient><rect fill="url(#gradient-p.1)" x="4.711098687664043" y="24.826671716226507" width="196.88188976377953" height="32.799999237060526"/></mask></defs><g id="p.1"><g filter="url(#shadowFilter-p.2)"><use xlink:href="#p.2" transform="matrix(1.0 0.0 0.0 1.0 3.1520435695538063 -2.462646194225723)"/></g><defs><filter id="shadowFilter-p.2" filterUnits="userSpaceOnUse"><feGaussianBlur in="SourceAlpha" stdDeviation="2.0" result="blur"/><feComponentTransfer in="blur" color-interpolation-filters="sRGB"><feFuncR type="linear" slope="0" intercept="0.0"/><feFuncG type="linear" slope="0" intercept="0.9843137"/><feFuncB type="linear" slope="0" intercept="1.0"/><feFuncA type="linear" slope="1.0" intercept="0"/></feComponentTransfer></filter></defs><g id="p.2"><path fill="#000000" fill-opacity="0.0" d="m7.5590553 12.118356l184.8819 0l0 17.763779l-184.8819 0z" fill-rule="evenodd"/><path fill="#4a86e8" d="m25.170994 27.458996q-1.421875 0 -2.5 -0.328125q-1.0625 -0.328125 -1.671875 -1.078125q-0.59375 -0.765625 -0.59375 -2.0625q0 -1.328125 0.5 -2.0625q0.515625 -0.75 1.453125 -1.0625q0.9375 -0.3125 2.234375 -0.359375l-0.015625 -0.265625q0 -0.125 0.078125 -0.265625l-4.21875 0.015625q-0.234375 0 -0.390625 -0.171875q-0.15625 -0.171875 -0.15625 -0.390625q0 -0.234375 0.15625 -0.390625q0.171875 -0.171875 0.390625 -0.171875l2.15625 0.015625q-0.078125 -0.265625 -0.140625 -0.71875q-0.046875 -0.46875 -0.09375 -0.875q-0.046875 -0.421875 -0.078125 -0.609375l-1.453125 0.015625q-0.234375 0 -0.40625 -0.15625q-0.15625 -0.171875 -0.15625 -0.40625q0 -0.21875095 0.15625 -0.37500095q0.171875 -0.171875 0.40625 -0.171875l1.359375 0.015625q-0.046875 -0.578125 -0.046875 -0.953125q-0.015625 -0.234375 0.125 -0.40625q0.15625 -0.171875 0.390625 -0.171875q0.25 -0.03125 0.40625 0.140625q0.171875 0.15625 0.1875 0.375l0.0625 1.0l3.734375 0l0 -1.015625q0 -0.21875 0.15625 -0.359375q0.171875 -0.140625 0.390625 -0.140625q0.234375 0 0.390625 0.15625q0.171875 0.15625 0.171875 0.390625q0 0.328125 0 0.46875q0 0.125 -0.015625 0.21875q0 0.078125 -0.015625 0.28125l1.28125 0q0.21875 0 0.375 0.171875q0.171875 0.15625 0.171875 0.37500095q0 0.234375 -0.171875 0.40625q-0.15625 0.15625 -0.375 0.15625l-1.328125 -0.015625q-0.046875 0.828125 -0.125 1.328125q-0.078125 0.5 -0.21875 0.859375l1.9375 0q0.234375 0 0.40625 0.15625q0.171875 0.15625 0.171875 0.40625q0 0.234375 -0.171875 0.40625q-0.15625 0.15625 -0.40625 0.15625l-4.046875 -0.03125q0.078125 0.125 0.078125 0.28125l-0.015625 0.265625q1.25 0.046875 2.203125 0.421875q0.96875 0.375 1.515625 1.125q0.546875 0.75 0.546875 1.9375q0 1.28125 -0.640625 2.046875q-0.625 0.75 -1.703125 1.09375q-1.078125 0.328125 -2.4375 0.328125zm-7.75 2.390625q-0.21875 0 -0.390625 -0.171875q-0.15625 -0.15625 -0.15625 -0.375l0.03125 -8.53125q-0.421875 0.71875 -0.796875 1.5q-0.375 0.78125 -0.671875 1.46875q-0.28125 0.671875 -0.421875 1.109375q-0.078125 0.203125 -0.234375 0.296875q-0.15625 0.078125 -0.3125 0.078125q-0.234375 0 -0.390625 -0.15625q-0.15625 -0.171875 -0.15625 -0.390625q0 -0.078125 0.046875 -0.171875q0.140625 -0.453125 0.4375 -1.171875q0.3125 -0.734375 0.71875 -1.5625q0.40625 -0.84375 0.859375 -1.625q0.453125 -0.796875 0.890625 -1.359375l0 -0.828125l-2.015625 0q-0.234375 0 -0.390625 -0.171875q-0.15625 -0.1875 -0.15625 -0.40625q0 -0.21875 0.15625 -0.390625q0.171875 -0.171875 0.390625 -0.171875l2.015625 0l0 -2.203126q0 -0.234375 0.15625 -0.390625q0.171875 -0.15625 0.390625 -0.15625q0.234375 0 0.40625 0.15625q0.171875 0.140625 0.171875 0.390625l0 2.203126l2.015625 0q0.21875 0 0.375 0.171875q0.171875 0.171875 0.171875 0.390625q0 0.21875 -0.15625 0.40625q-0.15625 0.171875 -0.390625 0.171875l-2.015625 0l-0.015625 1.359375q0.25 0.078125 0.625 0.40625q0.375 0.328125 0.75 0.796875q0.375 0.46875 0.6875 0.953125q0.3125 0.46875 0.46875 0.8125q0.046875 0.09375 0.046875 0.21875q0 0.21875 -0.171875 0.390625q-0.15625 0.171875 -0.40625 0.171875q-0.125 0 -0.28125 -0.078125q-0.140625 -0.09375 -0.21875 -0.265625q-0.21875 -0.5625 -0.59375 -1.03125q-0.375 -0.484375 -0.921875 -0.984375l0.03125 8.59375q0 0.234375 -0.171875 0.390625q-0.171875 0.15625 -0.40625 0.15625zm6.328125 -10.984375l2.828125 0q0.109375 -0.28125 0.171875 -0.6875q0.078125 -0.421875 0.125 -0.828125q0.0625 -0.421875 0.078125 -0.671875l-3.546875 0q0 0.1875 0.046875 0.5625q0.0625 0.359375 0.140625 0.8125q0.078125 0.4375 0.15625 0.8125zm0.828125 7.484375l0 -1.8125l-1.890625 0q-0.21875 0 -0.390625 -0.15625q-0.15625 -0.171875 -0.15625 -0.390625q0 -0.234375 0.15625 -0.40625q0.15625 -0.171875 0.390625 -0.171875l1.890625 0l0 -1.796875q-1.6875 0.046875 -2.375 0.5625q-0.6875 0.515625 -0.6875 1.8125q0 1.296875 0.8125 1.796875q0.828125 0.5 2.25 0.5625zm1.109375 -0.015625q3.140625 -0.140625 3.140625 -2.34375q0 -1.140625 -0.765625 -1.71875q-0.765625 -0.59375 -2.359375 -0.65625l0 1.796875l1.890625 0q0.25 0 0.40625 0.171875q0.15625 0.171875 0.15625 0.40625q0 0.21875 -0.171875 0.390625q-0.15625 0.15625 -0.390625 0.15625l-1.890625 0l-0.015625 1.796875zm-5.21875 3.40625q-0.203125 -0.15625 -0.203125 -0.4375q0 -0.21875 0.125 -0.359375q0.046875 -0.0625 0.296875 -0.359375q0.25 -0.296875 0.578125 -0.65625q0.34375 -0.34375 0.609375 -0.546875q0.15625 -0.109375 0.3125 -0.109375q0.234375 0 0.40625 0.15625q0.171875 0.15625 0.171875 0.40625q0 0.328125 -0.234375 0.484375q-0.171875 0.09375 -0.40625 0.328125q-0.234375 0.25 -0.46875 0.515625q-0.234375 0.28125 -0.375 0.484375q-0.21875 0.203125 -0.453125 0.203125q-0.21875 0 -0.359375 -0.109375zm9.359375 0.015625q-0.15625 0.09375 -0.328125 0.09375q-0.3125 0 -0.46875 -0.203125q-0.15625 -0.21875 -0.40625 -0.5q-0.234375 -0.265625 -0.484375 -0.484375q-0.234375 -0.21875 -0.40625 -0.3125q-0.171875 -0.0625 -0.265625 -0.21875q-0.078125 -0.140625 -0.078125 -0.28125q0 -0.28125 0.171875 -0.4375q0.1875 -0.140625 0.40625 -0.140625q0.109375 0 0.21875 0.0625q0.375 0.1875 0.75 0.546875q0.375 0.359375 0.65625 0.6875q0.28125 0.328125 0.34375 0.390625q0.125 0.125 0.125 0.328125q0 0.28125 -0.234375 0.46875zm7.124893 -4.953125q-0.21875 0 -0.375 -0.15625q-0.15625 -0.171875 -0.15625 -0.40625q0 -0.21875 0.15625 -0.375q0.15625 -0.171875 0.375 -0.171875l1.03125 0q-0.03125 -0.703125 -0.0625 -1.375q-0.015625 -0.671875 -0.015625 -1.3125q0 -1.078125 0.0625 -2.03125q0.0625 -0.96875 0.203125 -1.734375q-0.234375 0 -0.40625 -0.1875q-0.171875 -0.1875 -0.171875 -0.375q0 -0.3125 0.3125 -0.5q0.4375 -0.20312595 1.171875 -0.43750095q0.75 -0.25 1.640625 -0.484375q0.890625 -0.25 1.8125 -0.4375q0.921875 -0.203125 1.703125 -0.34375q0.796875 -0.15625 1.296875 -0.203125q0.25 -0.03125 0.421875 0.125q0.171875 0.15625 0.171875 0.40625q0 0.21875 -0.140625 0.390625q-0.140625 0.15625 -0.359375 0.171875q-0.578125 0.0625 -1.484375 0.234375q-0.890625 0.171875 -1.90625 0.40625095q-1.015625 0.234375 -1.9375 0.5q-0.921875 0.25 -1.5 0.5q0.203125 0.0625 0.296875 0.21875q0.09375 0.15625 0.09375 0.328125q0 0.078125 0 0.140625q0 0.046875 -0.03125 0.109375l6.984375 0q0.21875 0 0.375 0.171875q0.171875 0.15625 0.171875 0.375q0 0.234375 -0.171875 0.40625q-0.15625 0.15625 -0.375 0.15625l-0.53125 0q0 0.4375 -0.046875 1.078125q-0.03125 0.625 -0.078125 1.3125q-0.03125 0.6875 -0.09375 1.3125q-0.046875 0.609375 -0.078125 1.0625l1.828125 0.015625q0.234375 0 0.390625 0.171875q0.171875 0.15625 0.171875 0.375q0 0.234375 -0.171875 0.40625q-0.15625 0.15625 -0.390625 0.15625l-10.1875 0zm-1.15625 -8.03125q-0.234375 -0.171875 -0.75 -0.421875q-0.515625 -0.25 -1.140625 -0.48437595q-0.625 -0.234375 -1.171875 -0.328125q-0.203125 -0.03125 -0.328125 -0.1875q-0.125 -0.15625 -0.125 -0.34375q0 -0.28125 0.1875 -0.421875q0.203125 -0.15625 0.453125 -0.109375q0.625 0.09375 1.328125 0.34375q0.71875 0.25 1.3125 0.546875q0.609375 0.296875 0.921875 0.546875q0.1875 0.15625095 0.1875 0.42187595q0 0.28125 -0.1875 0.421875q-0.171875 0.140625 -0.375 0.140625q-0.1875 0 -0.3125 -0.125zm3.265625 6.921875l5.15625 0q0 0 0.015625 -0.4375q0.03125 -0.453125 0.078125 -1.125q0.046875 -0.671875 0.078125 -1.359375q0.046875 -0.703125 0.078125 -1.21875q0.03125 -0.53125 0.03125 -0.640625l-5.4375 0q-0.046875 0.703125 -0.0625 1.265625q-0.015625 0.5625 -0.015625 1.0625q0 0.578125 0.015625 1.15625q0.03125 0.5625 0.0625 1.296875zm-3.734375 -2.234375q-0.359375 -0.203125 -0.859375 -0.359375q-0.5 -0.171875 -1.015625 -0.265625q-0.515625 -0.09375 -0.96875 -0.0625q-0.234375 0.015625 -0.4375 -0.140625q-0.203125 -0.15625 -0.203125 -0.390625q0 -0.1875 0.125 -0.34375q0.140625 -0.171875 0.328125 -0.21875q0.0625 -0.015625 0.125 -0.015625q0.078125 0 0.15625 0q0.4375 0 1.0625 0.140625q0.625 0.125 1.234375 0.296875q0.609375 0.171875 0.953125 0.34375q0.296875 0.15625 0.296875 0.5q0 0.25 -0.15625 0.40625q-0.15625 0.15625 -0.375 0.15625q-0.125 0 -0.265625 -0.046875zm-2.703125 7.953125q-0.109375 0.046875 -0.234375 0.046875q-0.21875 0 -0.390625 -0.15625q-0.15625 -0.15625 -0.15625 -0.40625q0 -0.328125 0.3125 -0.5q0.1875 -0.09375 0.5 -0.421875q0.328125 -0.328125 0.6875 -0.78125q0.375 -0.46875 0.71875 -0.953125q0.34375 -0.484375 0.625 -0.90625q0.28125 -0.421875 0.40625 -0.640625q0.078125 -0.15625 0.21875 -0.21875q0.140625 -0.078125 0.28125 -0.078125q0.109375 0 0.25 0.078125q0.28125 0.171875 0.28125 0.46875q0 0.109375 -0.046875 0.265625q-0.25 0.4375 -0.6875 1.078125q-0.421875 0.640625 -0.9375 1.28125q-0.5 0.65625 -0.984375 1.15625q-0.484375 0.515625 -0.84375 0.6875zm13.3125 0.125q-0.375 0 -0.484375 -0.34375q-0.0625 -0.09375 -0.265625 -0.5q-0.1875 -0.390625 -0.46875 -0.90625q-0.265625 -0.515625 -0.53125 -0.9375q-0.25 -0.4375 -0.40625 -0.59375q-0.203125 -0.1875 -0.203125 -0.4375q0 -0.203125 0.140625 -0.375q0.15625 -0.171875 0.40625 -0.171875q0.1875 0 0.328125 0.109375q0.21875 0.15625 0.5 0.609375q0.296875 0.453125 0.59375 1.015625q0.3125 0.546875 0.546875 1.03125q0.25 0.5 0.359375 0.734375q0.046875 0.09375 0.046875 0.21875q0 0.203125 -0.171875 0.375q-0.15625 0.171875 -0.390625 0.171875zm-8.046875 0.046875q-0.328125 0 -0.484375 -0.203125q-0.140625 -0.203125 -0.140625 -0.40625q0 -0.109375 0.015625 -0.140625q0.140625 -0.484375 0.4375 -1.109375q0.3125 -0.609375 0.6875 -1.203125q0.390625 -0.609375 0.765625 -1.046875q0.140625 -0.1875 0.40625 -0.1875q0.21875 0 0.375 0.109375q0.1875 0.15625 0.1875 0.421875q0 0.1875 -0.140625 0.359375q-0.328125 0.390625 -0.65625 0.9375q-0.328125 0.53125 -0.59375 1.0625q-0.265625 0.546875 -0.390625 0.96875q-0.15625 0.4375 -0.46875 0.4375z" fill-rule="nonzero"/><path fill="#ffffff" d="m56.623905 28.66212q-0.15625 0 -0.359375 -0.125q-0.203125 -0.109375 -0.25 -0.359375q-0.03125 -0.078125 -0.125 -0.40625q-0.09375 -0.328125 -0.234375 -0.75q-0.125 -0.4375 -0.25 -0.828125q-0.125 -0.40625 -0.15625 -0.46875l-4.671875 0.296875q-0.296875 0 -0.46875 -0.1875q-0.15625 -0.1875 -0.15625 -0.390625q-0.03125 -0.25 0.125 -0.4375q0.171875 -0.203125 0.453125 -0.234375l4.3125 -0.28125q-0.265625 -0.8125 -0.515625 -1.5625q-0.234375 -0.75 -0.375 -1.125l-3.59375 0.234375q-0.28125 0 -0.46875 -0.1875q-0.171875 -0.203125 -0.171875 -0.46875q0 -0.296875 0.1875 -0.4375q0.1875 -0.140625 0.375 -0.171875l3.4375 -0.078125q-0.140625 0.0625 -0.25 -0.203125q-0.109375 -0.28125 -0.234375 -0.578125q-0.125 -0.3125 -0.234375 -0.546875q-0.09375 -0.25 -0.125 -0.296875q-0.09375 -0.140625 -0.09375 -0.3125q0 -0.234375 0.171875 -0.4375q0.1875 -0.203125 0.453125 -0.203125q0.3125 0 0.53125 0.28125q0.0625 0.09375 0.1875 0.359375q0.125 0.265625 0.25 0.609375q0.140625 0.328125 0.28125 0.671875q0.140625 0.34375 0.171875 0.4375l3.46875 -0.21875q0.265625 -0.046875 0.46875 0.15625q0.21875 0.1875 0.21875 0.421875q0.046875 0.265625 -0.140625 0.484375q-0.1875 0.203125 -0.46875 0.203125l-3.34375 0.03125q0.15625 -0.046875 0.265625 0.265625q0.109375 0.3125 0.25 0.734375q0.140625 0.421875 0.28125 0.859375q0.140625 0.421875 0.234375 0.75q0.109375 0.3125 0.046875 0.3125l2.4375 -0.234375q0.28125 -0.03125 0.46875 0.171875q0.203125 0.1875 0.203125 0.484375q0 0.25 -0.171875 0.4375q-0.15625 0.171875 -0.421875 0.171875l-2.078125 0.140625q0.03125 0.09375 0.171875 0.578125q0.15625 0.484375 0.296875 0.921875q0.140625 0.4375 0.203125 0.703125q0.03125 0.046875 0.03125 0.1875q0 0.21875 -0.171875 0.421875q-0.15625 0.203125 -0.453125 0.203125zm8.781338 0.15625q-0.515625 0 -0.578125 -0.53125l-0.640625 -4.296875q0 0.0625 -0.2968712 0.125q-0.28125 0.046875 -0.5 0.078125q-0.21875 0.03125 -0.265625 0.0625q-0.375 0.0625 -0.5625 -0.09375q-0.171875 -0.171875 -0.203125 -0.359375q-0.078125 -0.234375 0.0625 -0.453125q0.140625 -0.21875 0.40625 -0.296875q0.21875 -0.046875 0.515625 -0.09375q0.296875 -0.0625 0.546875 -0.09375q0.2656212 -0.046875 0.2812462 0.15625l-0.3593712 -1.078125q-0.03125 -0.296875 0.125 -0.484375q0.17187119 -0.1875 0.4062462 -0.21875q0.265625 0 0.453125 0.125q0.1875 0.125 0.21875 0.390625l0.140625 0.921875q0.578125 -0.0625 1.234375 -0.125q0.671875 -0.0625 1.171875 -0.0625q0.71875 0 1.328125 0.125q0.625 0.125 1.015625 0.5q0.40625 0.375 0.40625 1.046875q0 0.609375 -0.3125 1.3125q-0.3125 0.6875 -0.71875 1.234375q-0.1875 0.265625 -0.5 0.265625q-0.203125 0 -0.34375 -0.125q-0.265625 -0.15625 -0.265625 -0.46875q0 -0.1875 0.125 -0.359375q0.1875 -0.296875 0.375 -0.65625q0.203125 -0.359375 0.328125 -0.671875q0.125 -0.328125 0.125 -0.546875q0 -0.1875 -0.1875 -0.28125q-0.1875 -0.09375 -0.5625 -0.125q-0.375 -0.046875 -0.765625 -0.046875q-0.328125 0 -0.796875 0.03125q-0.453125 0.03125 -0.921875 0.078125q-0.453125 0.046875 -0.546875 0.0625l0.6875 4.234375q0.078125 0.375 -0.1875 0.546875q-0.25 0.171875 -0.4375 0.171875zm11.953217 -6.90625l-3.203125 -0.640625q-0.28125 -0.0625 -0.375 -0.234375q-0.09375 -0.1875 -0.09375 -0.34375q0 -0.078125 0 -0.140625q0.0625 -0.265625 0.28125 -0.421875q0.234375 -0.15625 0.453125 -0.0625l3.1875 0.640625q0.578125 0.140625 0.484375 0.734375q-0.078125 0.25 -0.28125 0.390625q-0.203125 0.125 -0.453125 0.078125zm-2.203125 6.21875q-0.3125 0 -0.453125 -0.21875q-0.125 -0.203125 -0.125 -0.453125q0.046875 -0.25 0.21875 -0.421875q0.1875 -0.171875 0.453125 -0.125q0.125 0.015625 0.265625 0.015625q0.140625 0 0.28125 0q1.21875 0 2.296875 -0.328125q1.09375 -0.34375 1.953125 -1.015625q1.0625 -0.78125 1.609375 -1.90625q0.546875 -1.125 0.5625 -2.46875q0 -0.328125 0.21875 -0.484375q0.21875 -0.15625 0.421875 -0.109375q0.203125 0 0.390625 0.171875q0.1875 0.15625 0.1875 0.4375q-0.03125 1.65625 -0.6875 3.0q-0.640625 1.34375 -1.875 2.3125q-1.078125 0.828125 -2.421875 1.21875q-1.34375 0.390625 -2.703125 0.390625q-0.15625 0 -0.3125 0q-0.140625 0 -0.28125 -0.015625zm19.312592 -6.265625q-0.5 0 -0.9375 -0.25q-0.421875 -0.25 -0.671875 -0.671875q-0.234375 -0.421875 -0.234375 -0.921875q0 -0.515625 0.234375 -0.9375q0.25 -0.421875 0.671875 -0.65625q0.421875 -0.25 0.9375 -0.25q0.5 0 0.921875 0.25q0.421875 0.234375 0.671875 0.65625q0.25 0.421875 0.25 0.9375q0 0.53125 -0.265625 0.953125q-0.265625 0.421875 -0.6875 0.65625q-0.40625 0.234375 -0.890625 0.234375zm0 -1.1875q0.3125 0 0.484375 -0.1875q0.171875 -0.203125 0.171875 -0.46875q0 -0.3125 -0.203125 -0.484375q-0.1875 -0.1875 -0.453125 -0.1875q-0.296875 0 -0.484375 0.1875q-0.1875 0.1875 -0.1875 0.484375q0 0.28125 0.1875 0.46875q0.1875 0.1875 0.484375 0.1875zm-8.921875 7.203125q-0.3125 0 -0.46875 -0.21875q-0.15625 -0.203125 -0.15625 -0.390625q0 -0.078125 0.03125 -0.1875q0.390625 -1.15625 0.71875 -2.046875q0.34375 -0.90625 0.6875 -1.671875q0.34375 -0.78125 0.734375 -1.53125q0.40625 -0.765625 0.96875 -1.625q0.1875 -0.265625 0.484375 -0.265625q0.171875 0 0.3125 0.078125q0.328125 0.15625 0.328125 0.515625q0 0.140625 -0.09375 0.328125q-0.515625 0.796875 -0.90625 1.515625q-0.375 0.703125 -0.703125 1.46875q-0.328125 0.75 -0.65625 1.625q-0.328125 0.875 -0.71875 2.0q-0.109375 0.40625 -0.5625 0.40625zm9.859375 -0.25q-0.109375 0.046875 -0.21875 0.046875q-0.203125 0 -0.34375 -0.125q-0.125 -0.109375 -0.203125 -0.265625q-0.5 -1.28125 -0.90625 -2.25q-0.390625 -0.96875 -0.796875 -1.75q-0.390625 -0.78125 -0.90625 -1.515625q-0.109375 -0.15625 -0.109375 -0.34375q0 -0.3125 0.28125 -0.53125q0.203125 -0.078125 0.328125 -0.078125q0.3125 0 0.5 0.265625q0.4375 0.59375 0.765625 1.203125q0.328125 0.59375 0.625 1.265625q0.296875 0.671875 0.625 1.46875q0.328125 0.796875 0.734375 1.796875q0.03125 0.078125 0.03125 0.15625q0 0.0625 0 0.09375q0 0.453125 -0.40625 0.5625zm3.7344666 0.625q-0.046875 0 -0.09375 0q-0.03125 0.015625 -0.09375 0.015625q-0.296875 0 -0.453125 -0.203125q-0.140625 -0.203125 -0.140625 -0.4375q0 -0.421875 0.421875 -0.546875q0.671875 -0.234375 1.421875 -0.59375q0.765625 -0.375 1.453125 -0.8125q0.6875 -0.453125 1.109375 -0.875q0.78125 -0.796875 1.375 -1.546875q0.609375 -0.765625 0.921875 -1.578125q0.09375 -0.21875 0.125 -0.375q0.03125 -0.15625 0.03125 -0.265625q0 -0.265625 -0.21875 -0.390625q-0.203125 -0.140625 -0.75 -0.1875q-0.53125 -0.0625 -1.328125 -0.0625q-0.609375 0 -1.421875 0.046875q-0.796875 0.046875 -1.640625 0.109375q-0.84375 0.0625 -1.5625 0.15625q-0.375 0.03125 -0.53125 -0.171875q-0.140625 -0.21875 -0.140625 -0.4375q0 -0.46875 0.515625 -0.609375q1.34375 -0.15625 2.515625 -0.21875q1.171875 -0.078125 2.296875 -0.078125q1.625 0 2.546875 0.390625q0.9375 0.375 0.9375 1.421875q0 0.625 -0.40625 1.546875q-0.359375 0.78125 -0.9375 1.546875q-0.5625 0.765625 -1.0 1.171875l2.359375 1.84375q0.234375 0.1875 0.234375 0.46875q0 0.203125 -0.125 0.375q-0.15625 0.25 -0.484375 0.25q-0.234375 0 -0.390625 -0.140625l-2.515625 -1.96875q-0.75 0.609375 -1.796875 1.15625q-1.03125 0.5625 -2.234375 1.0z" fill-rule="nonzero"/><path fill="#00ff00" d="m115.56186 14.72462q1.21875 0 2.0 0.328125q0.78125 0.328125 1.359375 0.796875q0.203125 0.15625095 0.359375 0.15625095q0.328125 0 0.421875 -1.031251l0.40625 0q-0.03125 0.6875 -0.0625 1.687501q-0.015625 1.0 -0.015625 2.640625l-0.390625 0q-0.125 -1.25 -0.4375 -2.078125q-0.296875 -0.84375 -1.15625 -1.437501q-0.359375 -0.25 -0.859375 -0.375q-0.484375 -0.140625 -0.921875 -0.140625q-1.015625 0 -1.671875 0.546875q-0.65625 0.54687595 -1.046875 1.421876q-0.390625 0.875 -0.5625 1.90625q-0.15625 1.03125 -0.15625 2.0q0 3.109375 0.765625 4.546875q0.765625 1.4375 2.03125 1.4375q0.265625 0 0.46875 -0.046875q0.21875 -0.046875 0.375 -0.15625q0.1875 -0.140625 0.265625 -0.34375q0.09375 -0.203125 0.09375 -0.515625l0 -1.734375q0 -0.859375 -0.125 -1.265625q-0.125 -0.421875 -0.515625 -0.578125q-0.375 -0.15625 -1.109375 -0.171875l0 -0.34375q0.40625 0.015625 0.96875 0.03125q0.578125 0 1.203125 0.015625q0.625 0 1.140625 0q0.828125 0 1.53125 -0.015625q0.703125 -0.015625 1.140625 -0.03125l0 0.34375q-0.4375 0.03125 -0.578125 0.28125q-0.140625 0.234375 -0.140625 1.203125l0 3.4375l-0.34375 0q-0.015625 -0.296875 -0.140625 -0.640625q-0.125 -0.34375 -0.390625 -0.34375q-0.140625 0 -0.390625 0.078125q-0.25 0.0625 -0.796875 0.3125q-0.671875 0.328125 -1.421875 0.59375q-0.75 0.25 -1.5 0.25q-3.265625 0 -4.890625 -1.65625q-1.625 -1.65625 -1.625 -4.625q0 -1.9375 0.859375 -3.390625q0.859375 -1.453125 2.375 -2.265626q1.515625 -0.828125 3.484375 -0.828125zm12.943741 6.953126l0 1.71875l-6.25 0l0 -1.71875l6.25 0zm7.448883 -3.671875l0.078125 0.453125l-5.75 6.96875l0.390625 -0.796875l5.671875 0q0.703125 0 0.890625 -0.15625q0.203125 -0.15625 0.265625 -0.5625l0.40625 0q0 1.171875 0.015625 1.84375q0.015625 0.65625 0.046875 1.15625q-0.15625 -0.03125 -0.75 -0.046875q-0.578125 -0.03125 -1.296875 -0.03125q-0.703125 -0.015625 -1.234375 -0.015625l-5.75 0l0 -0.359375l7.015625 -8.453125zm0.28125 0l0 11.671875l-2.421875 0l0 -8.8125l2.140625 -2.859375l0.28125 0z" fill-rule="nonzero"/><path fill="#ffffff" d="m149.76614 20.021496l-1.171875 -1.09375q-0.203125 -0.203125 -0.203125 -0.453125q0 -0.203125 0.171875 -0.40625q0.1875 -0.203125 0.4375 -0.203125q0.25 0 0.421875 0.1875l1.171875 1.109375q0.1875 0.171875 0.1875 0.421875q0 0.234375 -0.171875 0.4375q-0.234375 0.171875 -0.4375 0.171875q-0.234375 0 -0.40625 -0.171875zm-5.171875 8.625q-0.1875 0.09375 -0.34375 0.09375q-0.28125 0 -0.515625 -0.25q-0.09375 -0.171875 -0.09375 -0.34375q0 -0.328125 0.265625 -0.515625q0.296875 -0.203125 0.65625 -0.59375q0.375 -0.40625 0.75 -0.921875q0.390625 -0.53125 0.71875 -1.109375q0.34375 -0.59375 0.609375 -1.140625q0.265625 -0.546875 0.421875 -0.984375q0.140625 -0.390625 0.203125 -0.703125q0.078125 -0.328125 0.078125 -0.578125q0 -0.53125 -0.40625 -0.796875q-0.40625 -0.265625 -1.4375 -0.375q-0.53125 -0.078125 -1.1875 -0.078125q-0.609375 0 -1.3125 0.046875q-0.703125 0.046875 -1.21875 0.078125l-0.984375 3.359375q-0.03125 0.25 -0.234375 0.359375q-0.1875 0.09375 -0.359375 0.09375q-0.25 0 -0.4375 -0.15625q-0.171875 -0.15625 -0.171875 -0.421875q0 -0.125 0.03125 -0.203125l1.265625 -4.28125q0.078125 -0.203125 0.21875 -0.3125q0.15625 -0.109375 0.34375 -0.109375q0.25 0 0.46875 0.21875q0.234375 0.203125 0.09375 0.3125q0.640625 -0.125 1.15625 -0.140625q0.53125 -0.03125 0.84375 -0.046875q0.328125 -0.015625 0.546875 -0.015625q0.21875 0 0.40625 0.015625q0.203125 0.015625 0.515625 0.046875q1.515625 0.171875 2.265625 0.71875q0.765625 0.53125 0.765625 1.65625q0 0.5625 -0.21875 1.359375q-0.1875 0.75 -0.59375 1.578125q-0.390625 0.828125 -0.890625 1.625q-0.5 0.796875 -1.078125 1.453125q-0.578125 0.65625 -1.140625 1.0625zm4.015625 -7.5625l-1.15625 -1.078125q-0.203125 -0.203125 -0.203125 -0.4375q0 -0.25 0.1875 -0.421875q0.171875 -0.1875 0.4375 -0.1875q0.21875 0 0.40625 0.15625l1.15625 1.125q0.203125 0.1875 0.203125 0.421875q0 0.25 -0.1875 0.421875q-0.171875 0.1875 -0.4375 0.1875q-0.234375 0 -0.40625 -0.1875zm10.015717 7.0625q-0.625 0 -1.015625 -0.421875q-0.390625 -0.40625 -0.609375 -1.0q-0.21875 -0.59375 -0.375 -1.21875q-0.15625 -0.796875 -0.234375 -1.828125q-0.078125 -1.03125 -0.078125 -2.0625q0 -0.421875 0.015625 -0.828125q0.03125 -0.421875 0.03125 -0.8125q0.046875 -0.3125 0.234375 -0.4375q0.203125 -0.140625 0.4375 -0.140625q0.546875 0.109375 0.546875 0.65625q-0.015625 0.21875 -0.03125 0.5q-0.015625 0.265625 -0.015625 0.609375q0 0.6875 0.046875 1.515625q0.0625 0.8125 0.140625 1.5625q0.078125 0.75 0.171875 1.234375q0.15625 0.78125 0.328125 1.09375q0.1875 0.296875 0.515625 0.296875q0.296875 0 0.671875 -0.140625q0.390625 -0.15625 0.796875 -0.40625q0.40625 -0.265625 0.765625 -0.546875q0.359375 -0.296875 0.59375 -0.546875q0.171875 -0.1875 0.421875 -0.1875q0.265625 0 0.4375 0.1875q0.1875 0.171875 0.1875 0.421875q0 0.25 -0.1875 0.421875q-0.328125 0.359375 -0.8125 0.71875q-0.46875 0.34375 -0.984375 0.65625q-0.515625 0.3125 -1.03125 0.5q-0.515625 0.203125 -0.96875 0.203125zm-6.21875 -0.1875q-0.5625 -0.0625 -0.515625 -0.671875q0.265625 -1.734375 0.78125 -3.421875q0.53125 -1.6875 1.21875 -3.453125q0.078125 -0.234375 0.234375 -0.328125q0.171875 -0.09375 0.3125 -0.09375q0.265625 0 0.453125 0.171875q0.1875 0.171875 0.1875 0.4375q0 0.078125 -0.015625 0.125q-0.015625 0.046875 -0.03125 0.109375q-0.65625 1.703125 -1.171875 3.40625q-0.515625 1.6875 -0.765625 3.234375q-0.0625 0.3125 -0.28125 0.40625q-0.21875 0.09375 -0.40625 0.078125zm12.906342 -3.75q-0.359375 0 -0.515625 -0.171875q-0.15625 -0.1875 -0.15625 -0.4375q0 -0.5 0.546875 -0.609375q0.6875 -0.046875 1.59375 -0.078125q0.90625 -0.03125 1.859375 -0.03125q0.984375 0 1.9375 0.03125q0.96875 0.03125 1.703125 0.078125q0.3125 0.03125 0.453125 0.25q0.140625 0.203125 0.109375 0.40625q0 0.21875 -0.203125 0.390625q-0.1875 0.171875 -0.46875 0.171875q-0.578125 -0.0625 -1.53125 -0.078125q-0.9375 -0.03125 -1.984375 -0.03125q-0.984375 0 -1.890625 0.03125q-0.890625 0.015625 -1.453125 0.078125zm13.000092 4.5q-0.296875 0.03125 -0.46875 -0.15625q-0.171875 -0.1875 -0.171875 -0.390625q-0.078125 -0.515625 0.515625 -0.65625q1.25 -0.140625 2.265625 -0.734375q1.015625 -0.609375 1.765625 -1.578125q0.75 -0.96875 1.125 -2.21875q0.15625 -0.4375 0.21875 -0.75q0.078125 -0.3125 0.078125 -0.5q0 -0.234375 -0.140625 -0.328125q-0.140625 -0.109375 -0.546875 -0.15625q-0.40625 -0.046875 -1.140625 -0.078125q-0.703125 -0.046875 -1.453125 -0.0625q-0.734375 -0.03125 -1.5 -0.03125q-1.390625 0 -2.734375 0.078125q-0.3125 0.03125 -0.484375 -0.171875q-0.15625 -0.203125 -0.15625 -0.421875q0 -0.609375 0.59375 -0.609375q0.703125 -0.03125 1.546875 -0.046875q0.859375 -0.03125 1.703125 -0.03125q1.1875 0 2.28125 0.046875q1.109375 0.046875 1.671875 0.3125q-0.171875 0.015625 -0.1875 -0.109375q-0.015625 -0.125 -0.015625 -0.234375q0 -0.5 0.234375 -0.921875q0.25 -0.421875 0.671875 -0.65625q0.4375 -0.25 0.9375 -0.25q0.5 0 0.921875 0.25q0.4375 0.25 0.671875 0.671875q0.25 0.421875 0.25 0.921875q0 0.84375 -0.5 1.34375q-0.484375 0.484375 -1.296875 0.484375q-0.203125 0 -0.21875 -0.0625q0.0625 0.84375 -0.28125 1.859375q-0.328125 1.0 -0.9375 1.890625q-0.59375 0.890625 -1.40625 1.59375q-0.8125 0.703125 -1.78125 1.15625q-0.96875 0.453125 -2.03125 0.546875zm6.609375 -8.15625q0.28125 0 0.46875 -0.1875q0.1875 -0.1875 0.1875 -0.46875q0 -0.28125 -0.1875 -0.46875q-0.1875 -0.1875 -0.46875 -0.1875q-0.296875 0 -0.484375 0.203125q-0.171875 0.1875 -0.171875 0.453125q0 0.28125 0.1875 0.46875q0.1875 0.1875 0.46875 0.1875z" fill-rule="nonzero"/></g></g></g></svg>